<svg width="14" height="12" viewBox="0 0 14 12" fill="none" xmlns="http://www.w3.org/2000/svg">
<path d="M11.04 6.03809C11.0462 6.0383 11.0524 6.03869 11.0586 6.03906C11.0973 6.04135 11.135 6.04677 11.1719 6.05469C11.2069 6.06221 11.2406 6.07434 11.2744 6.08691C11.2856 6.09109 11.2976 6.09297 11.3086 6.09766C11.3941 6.13417 11.4742 6.18715 11.5439 6.25684L13.3555 8.06836C13.648 8.36124 13.6482 8.83611 13.3555 9.12891C13.0627 9.4217 12.5878 9.4215 12.2949 9.12891L11.7637 8.59766V10.4102C11.7635 10.8242 11.4278 11.1602 11.0137 11.1602C10.5996 11.1601 10.2639 10.8242 10.2637 10.4102V8.59766L9.73242 9.12891C9.43955 9.42166 8.96474 9.42166 8.67188 9.12891C8.37924 8.83603 8.37916 8.36119 8.67188 8.06836L10.4834 6.25684L10.54 6.20508C10.5502 6.19677 10.5618 6.19031 10.5723 6.18262C10.5874 6.17152 10.6031 6.16132 10.6191 6.15137C10.6452 6.1352 10.6718 6.12108 10.6992 6.1084C10.7143 6.1014 10.7295 6.09487 10.7451 6.08887C10.7727 6.07828 10.8007 6.0697 10.8291 6.0625C10.8548 6.05597 10.8805 6.04872 10.9072 6.04492C10.9111 6.04436 10.915 6.04346 10.9189 6.04297C10.95 6.03906 10.9816 6.03711 11.0137 6.03711C11.0225 6.03711 11.0313 6.03778 11.04 6.03809ZM11.6182 0C12.137 0.000185324 12.635 0.206382 13.002 0.573242C13.3688 0.940312 13.5752 1.43904 13.5752 1.95801V4.97656C13.5749 5.39037 13.239 5.72631 12.8252 5.72656C12.4113 5.72641 12.0755 5.39043 12.0752 4.97656V1.95801C12.0752 1.83686 12.0269 1.71956 11.9414 1.63379C11.8558 1.54823 11.7392 1.50018 11.6182 1.5H1.95801C1.83667 1.5 1.71959 1.548 1.63379 1.63379C1.54798 1.7196 1.5 1.83666 1.5 1.95801V6.78809C1.5002 6.90912 1.54821 7.02571 1.63379 7.11133C1.71956 7.19686 1.83686 7.24512 1.95801 7.24512H6.78809C7.20187 7.24556 7.538 7.58125 7.53809 7.99512C7.53787 8.40887 7.20179 8.74468 6.78809 8.74512H1.95801C1.43904 8.74512 0.940312 8.53872 0.573242 8.17188C0.206361 7.80495 0.000199945 7.30695 0 6.78809V1.95801C0 1.43883 0.206131 0.940354 0.573242 0.573242C0.940351 0.206148 1.43885 0 1.95801 0H11.6182ZM6.78809 2.41504C7.86884 2.41548 8.74512 3.29219 8.74512 4.37305C8.74468 5.45353 7.86857 6.32964 6.78809 6.33008C5.70723 6.33008 4.83052 5.4538 4.83008 4.37305C4.83008 3.29192 5.70696 2.41504 6.78809 2.41504ZM3.1709 3.62207C3.58487 3.62229 3.92081 3.95807 3.9209 4.37207C3.9209 4.78615 3.58493 5.12185 3.1709 5.12207H3.16504C2.75083 5.12207 2.41504 4.78628 2.41504 4.37207C2.41513 3.95793 2.75088 3.62207 3.16504 3.62207H3.1709ZM10.416 3.62207C10.8301 3.6222 11.1659 3.95801 11.166 4.37207C11.166 4.7862 10.8301 5.12194 10.416 5.12207H10.4102C9.99594 5.12207 9.66016 4.78628 9.66016 4.37207C9.66025 3.95793 9.996 3.62207 10.4102 3.62207H10.416ZM6.78809 3.91504C6.53539 3.91504 6.33008 4.12035 6.33008 4.37305C6.33052 4.62537 6.53566 4.83008 6.78809 4.83008C7.04014 4.82964 7.24468 4.6251 7.24512 4.37305C7.24512 4.12062 7.04041 3.91548 6.78809 3.91504Z" fill="#FAFAFA"/>
</svg>
