<svg width="14" height="10" viewBox="0 0 14 10" fill="none" xmlns="http://www.w3.org/2000/svg">
<path d="M11.6182 0C12.6989 0.000378244 13.575 0.877261 13.5752 1.95801V7.99512C13.5752 9.07601 12.699 9.95275 11.6182 9.95312H1.95801C0.876884 9.95312 0 9.07624 0 7.99512V1.95801C0.000169419 0.877028 0.876989 0 1.95801 0H11.6182ZM1.5 4.51953V7.99512C1.5 8.24781 1.70531 8.45312 1.95801 8.45312H11.6182C11.8705 8.45275 12.0752 8.24758 12.0752 7.99512V4.51953H1.5ZM1.95801 1.5C1.70542 1.5 1.50017 1.70546 1.5 1.95801V3.01953H12.0752V1.95801C12.075 1.70569 11.8704 1.50038 11.6182 1.5H1.95801Z" fill="#FAFAFA"/>
</svg>
