<svg width="14" height="12" viewBox="0 0 14 12" fill="none" xmlns="http://www.w3.org/2000/svg">
<path d="M12.2939 6.86035C12.5866 6.56767 13.0615 6.56809 13.3545 6.86035C13.6474 7.15324 13.6474 7.62801 13.3545 7.9209L12.375 8.89941L13.3545 9.87891C13.6474 10.1718 13.6474 10.6466 13.3545 10.9395C13.0616 11.2323 12.5868 11.2323 12.2939 10.9395L11.3145 9.95996L10.3359 10.9395C10.043 11.2323 9.56828 11.2323 9.27539 10.9395C8.98313 10.6465 8.98271 10.1716 9.27539 9.87891L10.2539 8.89941L9.27539 7.9209C8.98298 7.62797 8.98266 7.15309 9.27539 6.86035C9.56812 6.56762 10.043 6.56794 10.3359 6.86035L11.3145 7.83887L12.2939 6.86035ZM11.6182 0C12.137 0.000185324 12.635 0.206382 13.002 0.573242C13.3688 0.940312 13.5752 1.43904 13.5752 1.95801V4.97656C13.5749 5.39037 13.239 5.72631 12.8252 5.72656C12.4113 5.72641 12.0755 5.39043 12.0752 4.97656V1.95801C12.0752 1.83686 12.0269 1.71956 11.9414 1.63379C11.8558 1.54823 11.7392 1.50018 11.6182 1.5H1.95801C1.83667 1.5 1.71959 1.548 1.63379 1.63379C1.54798 1.7196 1.5 1.83666 1.5 1.95801V6.78809C1.5002 6.90912 1.54821 7.02571 1.63379 7.11133C1.71956 7.19686 1.83686 7.24512 1.95801 7.24512H7.3916C7.80551 7.24542 8.14151 7.58116 8.1416 7.99512C8.14138 8.40896 7.80543 8.74482 7.3916 8.74512H1.95801C1.43904 8.74512 0.940312 8.53872 0.573242 8.17188C0.206361 7.80495 0.000199945 7.30695 0 6.78809V1.95801C0 1.43883 0.206131 0.940354 0.573242 0.573242C0.940351 0.206148 1.43885 0 1.95801 0H11.6182ZM6.78809 2.41504C7.86884 2.41548 8.74512 3.29219 8.74512 4.37305C8.74468 5.45353 7.86857 6.32964 6.78809 6.33008C5.70723 6.33008 4.83052 5.4538 4.83008 4.37305C4.83008 3.29192 5.70696 2.41504 6.78809 2.41504ZM3.1709 3.62207C3.58487 3.62229 3.92081 3.95807 3.9209 4.37207C3.9209 4.78615 3.58493 5.12185 3.1709 5.12207H3.16504C2.75083 5.12207 2.41504 4.78628 2.41504 4.37207C2.41513 3.95793 2.75088 3.62207 3.16504 3.62207H3.1709ZM10.416 3.62207C10.8301 3.6222 11.1659 3.95801 11.166 4.37207C11.166 4.7862 10.8301 5.12194 10.416 5.12207H10.4102C9.99594 5.12207 9.66016 4.78628 9.66016 4.37207C9.66025 3.95793 9.996 3.62207 10.4102 3.62207H10.416ZM6.78809 3.91504C6.53539 3.91504 6.33008 4.12035 6.33008 4.37305C6.33052 4.62537 6.53566 4.83008 6.78809 4.83008C7.04014 4.82964 7.24468 4.6251 7.24512 4.37305C7.24512 4.12062 7.04041 3.91548 6.78809 3.91504Z" fill="#FAFAFA"/>
</svg>
