<svg width="14" height="14" viewBox="0 0 14 14" fill="none" xmlns="http://www.w3.org/2000/svg">
<path d="M6.79395 0C7.32513 3.80003e-05 7.84853 0.133578 8.31445 0.388672C8.63355 0.56339 8.91804 0.792528 9.1582 1.0625C9.52163 1.03944 9.88807 1.07859 10.2402 1.18066C10.7527 1.32927 11.2194 1.60516 11.5967 1.98242C11.9739 2.35967 12.2498 2.82649 12.3984 3.33887C12.5004 3.69064 12.5385 4.05689 12.5156 4.41992C12.7861 4.66025 13.0155 4.94517 13.1904 5.26465C13.4455 5.73053 13.579 6.25402 13.5791 6.78516C13.579 7.31608 13.4453 7.83894 13.1904 8.30469C13.0157 8.62388 12.7857 8.90823 12.5156 9.14844C12.5385 9.51119 12.5002 9.87699 12.3984 10.2285C12.2502 10.7402 11.9748 11.2069 11.5986 11.584C11.2223 11.961 10.7564 12.2364 10.2451 12.3857C9.89385 12.4883 9.52879 12.527 9.16602 12.5049C8.92558 12.7767 8.64053 13.0077 8.32031 13.1836C7.85361 13.4398 7.32927 13.5742 6.79688 13.5742C6.26457 13.5741 5.74103 13.4397 5.27441 13.1836C4.95428 13.0078 4.66913 12.7775 4.42871 12.5059C4.06647 12.5285 3.70159 12.4913 3.35059 12.3896C2.83874 12.2414 2.37231 11.9663 1.99512 11.5898C1.6181 11.2136 1.3427 10.7476 1.19336 10.2363C1.09105 9.88565 1.05136 9.52036 1.07324 9.1582C0.800467 8.91776 0.569174 8.63223 0.392578 8.31152C0.135271 7.84407 5.21968e-05 7.31875 0 6.78516C8.0316e-05 6.25164 0.135315 5.72618 0.392578 5.25879C0.569215 4.93809 0.800429 4.65155 1.07324 4.41113C1.05146 4.04912 1.09105 3.68451 1.19336 3.33398C1.34267 2.82276 1.61818 2.35672 1.99512 1.98047C2.37221 1.60428 2.83897 1.32888 3.35059 1.18066C3.7018 1.07899 4.06725 1.03973 4.42969 1.0625C4.66988 0.792456 4.95525 0.563425 5.27441 0.388672C5.74017 0.133781 6.263 6.5874e-05 6.79395 0ZM6.79395 1.5C6.51477 1.50007 6.24003 1.57109 5.99512 1.70508C5.75011 1.83923 5.54215 2.03327 5.3916 2.26855C5.22164 2.53412 4.90339 2.66459 4.5957 2.5957C4.32242 2.53443 4.0376 2.54333 3.76855 2.62109C3.49943 2.69904 3.25307 2.84414 3.05469 3.04199C2.85651 3.23982 2.71139 3.48514 2.63281 3.75391C2.5543 4.0229 2.54481 4.30847 2.60547 4.58203C2.67376 4.89045 2.54124 5.20885 2.27441 5.37793C2.03739 5.52798 1.84144 5.73575 1.70605 5.98145C1.57069 6.22731 1.50008 6.5045 1.5 6.78516C1.50005 7.06569 1.57083 7.3421 1.70605 7.58789C1.84141 7.83374 2.03731 8.04125 2.27441 8.19141C2.54146 8.36041 2.67374 8.67975 2.60547 8.98828C2.5448 9.26174 2.55442 9.54652 2.63281 9.81543C2.7113 10.0843 2.85649 10.3294 3.05469 10.5273C3.25313 10.7254 3.49927 10.8703 3.76855 10.9482C4.0377 11.0261 4.3223 11.0349 4.5957 10.9736L4.71094 10.957C4.98084 10.9395 5.24403 11.0695 5.39258 11.3027C5.54295 11.5391 5.75052 11.7343 5.99609 11.8691C6.24149 12.0038 6.51695 12.0741 6.79688 12.0742C7.07689 12.0742 7.35316 12.0039 7.59863 11.8691C7.84405 11.7343 8.05185 11.539 8.20215 11.3027C8.37162 11.0369 8.69022 10.9053 8.99805 10.9736C9.27157 11.0343 9.55625 11.0248 9.8252 10.9463C10.094 10.8677 10.3392 10.7226 10.5371 10.5244C10.7349 10.3261 10.88 10.0805 10.958 9.81152C11.0359 9.54238 11.0447 9.25679 10.9834 8.9834C10.9147 8.67573 11.0459 8.35735 11.3115 8.1875C11.5466 8.037 11.7409 7.82978 11.875 7.58496C12.009 7.34 12.079 7.06438 12.0791 6.78516C12.079 6.50593 12.009 6.2303 11.875 5.98535C11.7408 5.74039 11.5468 5.53234 11.3115 5.38184C11.0457 5.21184 10.9143 4.8938 10.9834 4.58594C11.0449 4.31211 11.0361 4.02639 10.958 3.75684C10.8798 3.48727 10.7346 3.24144 10.5361 3.04297C10.3376 2.84451 10.0919 2.69926 9.82227 2.62109C9.55268 2.54297 9.26701 2.53419 8.99316 2.5957C8.68544 2.66473 8.3673 2.53416 8.19727 2.26855C8.04671 2.03318 7.83883 1.83927 7.59375 1.70508C7.34866 1.57089 7.07336 1.50004 6.79395 1.5ZM8.0752 4.44336C8.36798 4.15079 8.84289 4.1509 9.13574 4.44336C9.42837 4.7362 9.42837 5.21106 9.13574 5.50391L5.5127 9.12695C5.21985 9.41958 4.74499 9.41958 4.45215 9.12695C4.15969 8.8341 4.15958 8.35919 4.45215 8.06641L8.0752 4.44336ZM8.61133 7.84668C9.02553 7.8467 9.36133 8.18248 9.36133 8.59668C9.36131 9.01086 9.02551 9.34666 8.61133 9.34668H8.60547C8.19127 9.34668 7.85549 9.01088 7.85547 8.59668C7.85547 8.18247 8.19126 7.84668 8.60547 7.84668H8.61133ZM4.98828 4.22363C5.40237 4.22363 5.73808 4.55959 5.73828 4.97363C5.73828 5.38785 5.40249 5.72363 4.98828 5.72363H4.98242C4.56838 5.72343 4.23242 5.38772 4.23242 4.97363C4.23262 4.55971 4.5685 4.22383 4.98242 4.22363H4.98828Z" fill="#FAFAFA"/>
</svg>
