<svg width="512" height="512" viewBox="0 0 126 243" fill="none" xmlns="http://www.w3.org/2000/svg">
  <g transform="translate(63, 121.5) scale(1.25) translate(-63, -121.5)">
    <path d="M62.4418 209.866C65.3801 199.804 71.012 190.846 74.0727 180.415C83.1326 149.738 81.4186 117.588 65.5026 89.6101C62.9315 86.9105 63.6661 88.9966 64.1558 90.9599C72.3587 125.932 65.0129 166.917 44.5669 196.245C-5.87455 165.568 -15.4242 91.4508 25.835 48.625C55.2184 18.193 84.6018 33.6544 107.741 62.0004C138.349 99.6723 127.085 162.377 92.4373 193.914C88.5195 197.472 70.8895 210.725 66.7269 210.97C62.5642 211.216 63.911 209.989 62.4418 209.866Z" fill="#2F4F4F"/>
  </g>
</svg>

